<?xml version="1.0" encoding="UTF-8"?>
<svg id="Layer_2_copy" data-name="Layer 2 copy" xmlns="http://www.w3.org/2000/svg" viewBox="0 0 400.41 398.69">
  <polygon points="65.97 40.5 16.44 40.5 41.2 83.4 65.97 40.5"/>
  <polygon points="118.97 40.5 69.44 40.5 94.2 83.4 118.97 40.5"/>
  <polygon points="171.97 40.5 122.44 40.5 147.2 83.4 171.97 40.5"/>
  <polygon points="224.97 40.5 175.44 40.5 200.2 83.4 224.97 40.5"/>
  <polygon points="277.97 40.5 228.44 40.5 253.2 83.4 277.97 40.5"/>
  <polygon points="330.97 40.5 281.44 40.5 306.2 83.4 330.97 40.5"/>
  <polygon points="383.97 40.5 334.44 40.5 359.2 83.4 383.97 40.5"/>
  <polygon points="67.7 41.5 42.94 84.4 92.47 84.4 67.7 41.5"/>
  <polygon points="95.94 84.4 145.47 84.4 120.7 41.5 95.94 84.4"/>
  <polygon points="148.94 84.4 198.47 84.4 173.7 41.5 148.94 84.4"/>
  <polygon points="201.94 84.4 251.47 84.4 226.7 41.5 201.94 84.4"/>
  <polygon points="254.94 84.4 304.47 84.4 279.7 41.5 254.94 84.4"/>
  <polygon points="307.94 84.4 357.47 84.4 332.7 41.5 307.94 84.4"/>
  <polygon points="92.47 86.4 42.94 86.4 67.7 129.3 92.47 86.4"/>
  <polygon points="145.47 86.4 95.94 86.4 120.7 129.3 145.47 86.4"/>
  <polygon points="279.7 129.3 304.47 86.4 254.94 86.4 279.7 129.3"/>
  <polygon points="357.47 86.4 307.94 86.4 332.7 129.3 357.47 86.4"/>
  <polygon points="69.44 130.3 118.97 130.3 94.2 87.4 69.44 130.3"/>
  <polygon points="306.2 87.4 281.44 130.3 330.97 130.3 306.2 87.4"/>
  <polygon points="118.97 132.3 69.44 132.3 94.2 175.2 118.97 132.3"/>
  <polygon points="171.97 132.3 122.44 132.3 147.2 175.2 171.97 132.3"/>
  <polygon points="277.97 132.3 228.44 132.3 253.2 175.2 277.97 132.3"/>
  <polygon points="330.97 132.3 281.44 132.3 306.2 175.2 330.97 132.3"/>
  <polygon points="120.7 133.3 95.94 176.2 145.47 176.2 120.7 133.3"/>
  <polygon points="173.7 133.3 148.94 176.2 198.47 176.2 173.7 133.3"/>
  <polygon points="201.94 176.2 251.47 176.2 226.7 133.3 201.94 176.2"/>
  <polygon points="254.94 176.2 304.47 176.2 279.7 133.3 254.94 176.2"/>
  <polygon points="145.47 178.2 95.94 178.2 120.7 221.1 145.47 178.2"/>
  <polygon points="198.47 178.2 148.94 178.2 173.7 221.1 198.47 178.2"/>
  <polygon points="226.7 221.1 251.47 178.2 201.94 178.2 226.7 221.1"/>
  <polygon points="279.7 221.1 304.47 178.2 254.94 178.2 279.7 221.1"/>
  <polygon points="147.2 179.2 122.44 222.1 171.97 222.1 147.2 179.2"/>
  <polygon points="228.44 222.1 277.97 222.1 253.2 179.2 228.44 222.1"/>
  <polygon points="171.97 224.1 122.44 224.1 147.2 267 171.97 224.1"/>
  <polygon points="253.2 267 277.97 224.1 228.44 224.1 253.2 267"/>
  <polygon points="173.7 225.1 148.94 268 198.47 268 173.7 225.1"/>
  <polygon points="201.94 268 251.47 268 226.7 225.1 201.94 268"/>
  <polygon points="198.47 270 148.94 270 173.7 312.9 198.47 270"/>
  <polygon points="226.7 312.9 251.47 270 201.94 270 226.7 312.9"/>
  <polygon points="175.44 313.9 224.97 313.9 200.2 271 175.44 313.9"/>
  <polygon points="200.2 358.8 224.97 315.9 175.44 315.9 200.2 358.8"/>
</svg>